<?xml version="1.0" standalone="no"?>
<!DOCTYPE svg PUBLIC "-//W3C//DTD SVG 20010904//EN"
 "http://www.w3.org/TR/2001/REC-SVG-20010904/DTD/svg10.dtd">
<svg version="1.0" xmlns="http://www.w3.org/2000/svg"
 width="358.000000pt" height="358.000000pt" viewBox="0 0 358.000000 358.000000"
 preserveAspectRatio="xMidYMid meet">
<metadata>
Created by potrace 1.11, written by Peter Selinger 2001-2013
</metadata>
<g transform="translate(0.000000,358.000000) scale(0.100000,-0.100000)"
fill="#000000" stroke="none">
<path d="M1888 3185 c-2 -1 -37 -5 -79 -8 -41 -3 -111 -13 -155 -22 -74 -16
-257 -70 -279 -83 -5 -4 -14 -7 -20 -8 -48 -8 -326 -154 -318 -167 3 -6 1 -7
-4 -4 -6 4 -22 -2 -36 -13 -14 -11 -30 -20 -35 -20 -6 0 -14 -5 -18 -12 -5 -7
-3 -8 7 -3 20 12 -6 -21 -46 -59 -33 -31 -159 -96 -187 -96 -9 0 -19 -4 -23
-10 -3 -5 -12 -7 -20 -3 -8 3 -15 0 -15 -6 0 -6 -7 -11 -15 -11 -8 0 -15 -4
-15 -10 0 -5 -19 -18 -43 -29 l-42 -20 40 3 c44 4 117 -14 121 -29 2 -6 -46
-41 -106 -80 -165 -105 -168 -108 -80 -81 46 15 79 21 86 15 6 -5 13 -7 15 -4
12 11 6 -43 -6 -62 -34 -51 -150 -73 -220 -43 -16 7 -33 13 -37 12 -5 -1 -8 3
-8 8 0 6 -7 10 -16 10 -11 0 -14 -6 -9 -22 13 -42 46 -87 68 -94 35 -10 49
-25 37 -39 -7 -9 -24 -8 -72 4 -35 9 -67 19 -73 23 -5 3 -25 9 -43 13 -20 4
-38 17 -48 33 -8 15 -12 18 -8 7 4 -11 8 -33 9 -48 3 -48 136 -174 225 -213
84 -37 102 -44 115 -44 20 0 8 -25 -19 -39 -19 -11 -56 -59 -56 -74 0 -3 22
-8 50 -12 40 -6 50 -11 50 -26 0 -25 -39 -138 -58 -166 -8 -13 -10 -23 -6 -23
5 0 -8 -11 -29 -24 l-38 -23 63 -12 c97 -19 102 -19 117 -20 13 -1 11 -23 -6
-67 -6 -15 -2 -16 28 -9 19 4 51 9 71 11 36 4 37 3 62 -53 15 -31 25 -58 23
-60 -3 -2 -15 0 -28 5 -36 13 -81 -3 -126 -47 -48 -45 -77 -98 -98 -178 -46
-176 1 -341 135 -467 39 -36 75 -66 81 -66 5 0 8 -4 4 -9 -3 -6 -13 -8 -23 -7
-9 2 -42 7 -72 11 -93 11 -213 29 -280 41 -139 25 -198 35 -215 39 -59 13 -93
24 -122 38 -18 10 -34 17 -38 17 -3 0 -5 -169 -5 -375 l0 -375 1790 0 1790 0
0 183 0 184 -167 -1 c-151 0 -360 8 -453 18 -19 3 -65 7 -102 11 -38 4 -68 9
-68 12 0 3 19 27 43 52 108 118 166 233 191 381 3 19 8 46 11 60 3 14 8 57 11
95 5 67 7 72 49 110 82 75 119 167 131 325 4 50 12 82 24 95 26 30 38 57 34
80 -2 11 -6 39 -9 62 -12 89 -28 98 -175 98 l-105 0 -17 100 c-19 102 -22 161
-13 205 3 14 6 79 7 145 1 112 -1 124 -26 173 -15 30 -37 58 -51 64 -29 13
-30 15 -10 62 17 40 22 143 10 196 -18 84 -67 141 -200 235 -74 52 -207 125
-229 125 -8 0 -62 16 -122 35 -121 39 -219 61 -314 70 -36 3 -82 8 -102 10
-20 2 -38 2 -40 0z"/>
</g>
</svg>
